<svg preserveAspectRatio="none" overflow="visible" style="display: block;" width="247" height="51" viewBox="0 0 247 51" fill="none" xmlns="http://www.w3.org/2000/svg">
<g id="Logo IR">
<path id="Vector" d="M102.327 26.2935C101.956 26.2935 101.662 26.1128 101.77 25.7364C101.879 25.36 106.992 8.42276 107.224 7.5345C107.471 6.64623 108.753 7.59472 109.201 8.57332C109.51 9.0852 109.556 9.47664 109.742 10.3348L112.538 24.9234C112.692 25.631 112.677 26.0526 112.09 26.0526C111.843 26.0526 102.311 26.2935 102.311 26.2935M122.934 39.0754C121.498 34.7245 114.5 6.8269 113.99 5.69774C111.719 2.76195 106.59 2.08446 104.597 2.70173C104.567 2.70173 104.381 2.9125 104.366 3.13833C104.366 3.13833 104.968 5.96874 103.825 8.99486C100.705 17.5614 93.3358 37.6301 92.8105 38.7442C92.2853 39.8583 90.1534 46.6935 85.21 46.4827C77.5478 46.031 71.4921 38.3829 71.5539 27.0613C71.5539 16.6279 76.003 8.00121 81.3944 5.63752C86.0288 3.57494 87.2801 5.72785 87.2801 5.72785C85.5345 8.78409 90.5242 12.8189 94.2935 9.82291C95.7148 8.66365 96.0237 6.75162 94.9115 4.85464C94.3708 4.0266 93.0113 2.80712 90.447 2.32535C87.898 1.84358 83.7888 1.79841 78.6909 3.37922C70.7661 6.01391 61.7753 12.8189 62.7794 28.5066C64.1234 41.8456 72.3263 46.8892 78.2429 48.6356C81.348 49.5389 84.5149 49.5389 87.1256 48.9216C89.103 48.4549 90.7559 47.6419 91.8064 46.6332C92.7796 45.8202 93.7992 44.4352 94.5253 43.1103C96.8888 38.5786 99.7776 31.2918 100.627 29.1239C100.782 28.7475 101.137 28.4915 101.57 28.4915C103.377 28.4915 108.29 28.5066 111.163 28.7776C112.352 28.883 113.341 29.3949 113.557 30.2078C113.774 31.0359 114.685 34.333 115.365 37.0129C116.539 41.6198 117.759 44.1943 117.759 44.1943C117.759 44.1943 118.516 46.302 120.586 47.4161C121.359 47.8377 123.012 48.5302 124.618 48.5302C126.194 48.47 127.059 48.0785 127.445 47.5064C126.086 45.9859 124.263 43.8028 122.934 39.0754Z" fill="#F9F7F0"/>
<path id="Vector_2" d="M224.296 4.52172L224.636 7.89412C224.636 7.89412 225.64 15.6777 225.13 28.3543C224.821 34.256 224.775 43.1839 224.388 44.2227C224.249 44.584 222.921 46.3154 222.921 46.3154C222.921 46.3154 223.261 47.5048 223.94 47.5048C224.62 47.5048 241.489 47.836 242.833 47.8209C244.471 44.9453 244.904 38.8329 244.904 38.8329C244.904 38.8329 244.625 38.4715 244.038 38.065C243.05 40.0975 240.563 43.8312 238.678 44.7496C236.809 45.6529 235.696 45.5777 233.688 45.5927C231.68 45.6078 231.278 45.5325 231.217 44.5238C230.799 38.7275 231.417 15.9487 231.695 11.5676C231.896 8.43611 232.112 4.91316 232.174 3.72379C229.764 3.30224 226.366 3.54313 224.991 3.67862C224.558 3.84423 224.296 4.50667 224.296 4.50667" fill="#F9F7F0"/>
<path id="Vector_3" d="M59.0077 47.3541C58.6833 47.0228 57.9882 46.8874 58.0654 44.8097C58.0654 44.1322 57.0304 21.1276 56.9531 19.2457C56.6442 8.45104 57.602 7.09606 57.8182 6.44868C58.0963 5.54536 58.5443 4.79259 58.776 4.4162C58.7297 4.19037 58.1581 3.66344 57.88 3.7086C56.5206 3.94949 49.9551 4.61192 48.5339 4.28071C48.0396 4.16026 47.7306 5.00336 47.7306 5.00336C48.0705 5.28941 48.503 5.77119 48.7193 6.20779C48.6729 6.31318 29.5482 37.8993 29.5482 37.8993C29.4864 37.9896 29.44 38.0649 29.3782 38.0348C29.3164 38.0197 29.3164 37.9595 29.3164 37.8843C29.1311 31.9976 28.8839 24.1839 28.714 19.7727C28.714 19.7727 28.4359 6.68956 28.6058 5.95185C28.6213 5.63569 28.714 5.28941 28.6985 4.86786C28.6985 4.85281 28.2814 4.00971 27.5708 3.91938C26.4585 3.81399 25.5317 3.75377 25.5317 3.75377C25.5317 3.75377 21.407 3.45266 20.9745 3.60321C20.7273 3.69355 20.4183 3.81399 20.0939 4.38609C20.6809 4.73237 21.0363 5.27436 21.1753 7.39716C21.2216 8.07465 22.2258 25.9905 22.2258 25.9905C22.442 35.4302 22.1331 44.1473 21.994 44.7043C21.8241 45.4119 21.2834 46.2249 21.0363 46.7368C20.959 46.782 21.3452 47.2938 21.9322 47.4444C23.3998 47.61 24.1722 47.61 25.578 47.61C27.0456 47.61 28.1424 47.3992 28.1424 47.3992L29.5173 45.5775L49.2909 13.1031C49.2909 13.1031 49.2909 13.1031 49.3063 13.1031C49.4454 12.8773 49.6771 12.7569 49.9551 12.8472C50.2641 12.9526 50.3104 13.2386 50.3259 13.329C50.7275 20.0437 51.2991 31.6814 51.3146 32.9009C51.4691 40.9104 51.2064 47.7455 51.2064 47.7455C51.2064 47.7455 53.0602 47.7003 54.1261 47.7455C55.8409 47.7907 56.9377 47.9262 57.9109 48.0466C58.1426 48.0918 58.2508 48.0466 58.3589 47.9713C58.6215 47.8057 58.9614 47.4293 58.9614 47.3541" fill="#F9F7F0"/>
<path id="Vector_4" d="M11.9369 43.5321C11.5662 41.7104 11.1645 37.6756 11.2263 29.907C11.2572 25.6464 11.2418 20.1963 11.4272 15.8905C11.6125 11.5696 11.8134 8.96502 11.9987 8.07676C11.9987 6.60133 15.0266 5.21624 15.0266 5.21624C15.0266 5.21624 14.4704 3.86126 13.7135 3.93654C12.9565 4.01181 7.37974 4.43336 7.37974 4.43336C7.37974 4.43336 2.66807 4.04192 1.91111 3.96664C1.15415 3.89137 0.443536 5.08074 0.443536 5.08074C0.443536 5.08074 3.70309 6.60133 3.70309 8.07676C3.87302 8.93491 4.18198 11.133 4.35191 15.8754C4.52184 20.3619 4.32101 25.6464 4.35191 29.907C4.4137 37.6906 4.01205 41.7104 3.6413 43.5321C3.6413 45.0075 0.381743 46.483 0.381743 46.483C0.381743 46.483 1.09236 47.6573 1.84932 47.5971C2.60627 47.5218 7.31795 47.1303 7.31795 47.1303C7.31795 47.1303 12.8947 47.5519 13.6517 47.6272C14.4086 47.7024 14.9648 46.3475 14.9648 46.3475C14.9648 46.3475 11.9524 45.0075 11.9524 43.5321" fill="#F9F7F0"/>
<path id="Vector_5" d="M215.037 43.5321C214.666 41.7104 214.264 37.6756 214.326 29.907C214.357 25.6464 214.341 20.1963 214.527 15.8905C214.712 11.5696 214.913 8.96502 215.098 8.07676C215.098 6.60133 218.126 5.21624 218.126 5.21624C218.126 5.21624 217.57 3.86126 216.813 3.93654C216.056 4.01181 210.479 4.43336 210.479 4.43336C210.479 4.43336 205.768 4.04192 205.011 3.96664C204.254 3.89137 203.543 5.08074 203.543 5.08074C203.543 5.08074 206.803 6.60133 206.803 8.07676C206.973 8.93491 207.282 11.133 207.452 15.8754C207.621 20.3619 207.421 25.6464 207.452 29.907C207.513 37.6906 207.112 41.7104 206.741 43.5321C206.741 45.0075 203.481 46.483 203.481 46.483C203.481 46.483 204.192 47.6573 204.949 47.5971C205.706 47.5218 210.418 47.1303 210.418 47.1303C210.418 47.1303 215.994 47.5519 216.751 47.6272C217.508 47.7024 218.064 46.3475 218.064 46.3475C218.064 46.3475 215.052 45.0075 215.052 43.5321" fill="#F9F7F0"/>
<path id="Vector_6" d="M146.587 30.6759C143.497 30.2393 142.91 28.5983 142.91 27.695C142.91 27.153 143.296 5.77439 143.296 5.59373C143.621 5.32273 144.733 5.00657 146.2 4.87107C148.595 4.64524 152.333 4.66029 156.412 7.73159C161.17 11.1793 161.68 18.4359 160.135 24.2021C158.59 29.9683 149.692 31.0975 146.602 30.6609M168.137 45.9872C167.442 46.2281 166.839 46.9809 165.82 46.8906C163.95 46.74 162.097 44.9484 160.83 43.2472C159.44 41.5911 156.489 35.9754 155.717 32.9493C155.5 32.1363 155.454 31.775 156.968 31.3986C165.372 29.065 168.647 24.7441 168.647 17.5928C168.647 11.1642 165.325 8.01764 160.644 5.3679C154.141 1.81483 143.513 3.16982 140.207 3.72686C138.523 3.99786 136.144 4.46458 134.753 4.9614C134.429 5.41307 133.904 6.33144 133.904 6.33144C134.182 6.43683 134.584 6.57232 134.815 6.73793C136.7 7.47565 136.437 10.7577 136.422 11.932L135.711 42.1933C135.68 42.8106 135.619 43.2773 135.541 43.6838C135.263 45.4904 132.544 46.6346 132.544 46.6346C132.544 46.6346 133.193 47.8089 133.873 47.7487C134.553 47.6734 138.801 47.282 138.801 47.282C138.801 47.282 143.837 47.7035 144.517 47.7788C145.196 47.8541 145.691 46.4991 145.691 46.4991C145.691 46.4991 143.173 45.2194 142.972 43.6838C142.756 42.5396 142.493 39.2575 142.462 37.5713C142.431 35.8851 142.508 34.4398 142.57 33.8526C142.57 33.4311 142.663 32.9644 143.821 32.9493C147.112 32.9493 148.332 35.9604 152.024 41.1846C154.898 45.1742 156.504 46.4991 159.316 47.9294C162.545 49.3145 166.607 48.9983 167.642 48.6821C168.538 48.4111 169.929 47.8692 169.991 46.8153C170.022 45.7313 169.141 45.656 168.183 45.9872" fill="#F9F7F0"/>
<path id="Vector_7" d="M188.013 26.3651C186.978 26.4554 180.181 26.5909 179.069 26.5608C178.327 26.5608 178.605 25.9887 178.605 25.9887L183.734 10.0451C183.734 10.0451 184.135 8.87074 184.475 8.55458C184.831 8.22336 185.325 8.13303 185.619 8.65997C186.082 9.68373 188.245 20.2827 188.863 23.7906C189.156 26.0489 189.156 26.3651 188.013 26.3651ZM198.224 39.2223C196.741 33.14 193.343 17.4824 192.493 12.9056C191.226 6.61244 190.469 5.75428 189.511 4.59502C188.863 3.70675 187.611 2.92388 186.314 2.60771C185.031 2.29155 182.637 2.47222 182.39 3.01421C182.328 3.22498 182.235 3.49598 182.127 3.8272C180.706 8.11798 176.427 20.4784 175.021 24.6186C174.28 27.0124 172.148 33.4862 170.263 38.8008C169.135 41.6161 168.332 43.9045 167.544 45.109C166.895 45.9671 166.494 46.3586 165.49 46.5392C163.806 46.8855 161.967 44.7627 161.967 44.7627C161.967 44.7627 159.218 46.7651 158.414 47.4877C160.917 48.918 163.574 49.746 166.973 49.0384C171.113 48.1803 172.071 43.7088 173.245 40.5773C174.743 36.5124 176.597 30.8516 177.06 29.4514C177.138 29.2256 177.354 29.075 177.601 29.075L189.187 29.5267C189.604 29.5267 189.944 29.7977 190.021 30.2042C190.191 31.2129 190.531 33.1851 190.948 35.2929C192.416 42.9561 193.482 45.8166 195.15 47.6383C198.131 50.6343 204.682 50.4687 204.79 49.3395C204.666 48.5717 203.646 48.8578 202.055 47.0662C200.912 45.7413 199.336 43.8443 198.24 39.2374" fill="#F9F7F0"/>
</g>
</svg>
